<?xml version="1.0" encoding="UTF-8" standalone="no"?>
<!-- Created with Inkscape (http://www.inkscape.org/) -->

<svg
   width="44.772602mm"
   height="10.349101mm"
   viewBox="0 0 44.772602 10.349101"
   version="1.1"
   id="svg5"
   xmlns="http://www.w3.org/2000/svg"
   xmlns:svg="http://www.w3.org/2000/svg">
  <defs
     id="defs2">
    <rect
       x="339.6041"
       y="295.30792"
       width="398.66568"
       height="142.73215"
       id="rect236" />
  </defs>
  <g
     id="layer1"
     transform="translate(-90.694035,-89.718228)">
    <g
       aria-label="eras"
       transform="scale(0.26458333)"
       id="text234"
       style="font-size:106.667px;font-family:'Colonna MT';-inkscape-font-specification:'Colonna MT';white-space:pre;shape-inside:url(#rect236);opacity:0.934343;fill:#29a20f;fill-rule:evenodd;stroke:#ff2a2a;stroke-width:0;stroke-linecap:round;stroke-linejoin:round;stroke-miterlimit:0">
      <path
         d="m 350.85355,372.89471 -0.20833,0.3125 q -7.86461,-4.53126 -7.86461,-14.21879 0,-3.75001 1.40625,-7.23961 1.40626,-3.48959 5.88544,-7.03127 l 0.26042,0.26042 q -3.28126,5.6771 -3.28126,13.64587 0,8.28128 3.80209,14.27088 z m 36.40636,-16.7188 h -4.63543 q -0.26041,-9.4792 -4.94793,-13.9063 8.38544,3.4896 9.58336,13.9063 z m -31.82301,-3.85418 h 18.54172 q -0.26041,-3.75001 -2.44792,-6.66669 -2.29168,-2.91667 -6.56252,-2.91667 -3.8021,0 -6.40627,2.65625 -2.60418,2.65626 -3.12501,6.92711 z m 23.75007,3.85418 h -24.16674 q -0.10417,2.60417 -0.10417,3.17709 0,6.77086 3.69793,10.88545 3.69793,4.06251 9.63545,4.06251 4.89585,0 8.85419,-2.65625 3.95835,-2.65626 6.25002,-7.13544 h 2.23959 q -4.79168,13.69796 -18.22922,13.69796 -8.07294,0 -12.44796,-5.62502 -4.37501,-5.57293 -4.37501,-14.11463 0,-8.22919 4.06251,-13.69796 4.01043,-5.41668 10.46879,-5.41668 5.20834,0 9.16669,3.90626 3.90626,3.85418 4.94793,12.91671 z"
         style="fill:#0f80df"
         id="path2460" />
      <path
         d="m 402.10371,339.92586 v 37.13553 q -7.65627,0.10417 -10.36461,0.625 v -0.9375 q 4.21876,-1.51042 5.41668,-3.69793 1.25,-2.29167 1.25,-8.17711 v -13.43754 q 0,-5.57293 -1.45834,-7.96877 -1.51042,-2.44793 -5.20834,-3.22918 v -0.88542 q 1.61458,0.3125 10.36461,0.57292 z m 3.75001,37.13553 v -37.13553 q 1.71876,-0.0521 4.16668,-0.57292 -0.3125,2.03126 -0.41667,6.97919 5.46877,-6.97919 7.81253,-6.97919 1.35417,0 5.00001,1.51042 3.1771,1.35417 4.32293,1.35417 1.51043,0 3.38543,-2.13542 0.15625,-0.15625 0.20834,-0.20834 0.0521,-0.10416 0.46875,-0.52083 l 1.19792,0.57292 q -2.50001,5.62502 -6.45836,5.62502 -1.35417,0 -5.26043,-1.71876 -1.61459,-0.72917 -2.44792,-0.72917 -2.50001,0 -5.31252,3.22918 1.35417,-0.41667 2.29167,-0.41667 1.45834,0 5.3646,1.77084 2.81251,1.19792 4.06252,1.19792 0.83333,0 1.71875,-0.52084 -2.55209,3.28126 -4.94793,3.28126 -1.09375,0 -3.59376,-1.19792 -3.59376,-1.77084 -5.00002,-1.77084 -1.40625,0 -2.81251,1.51043 v 15.83338 q 0,5.31252 1.71876,7.76044 1.71876,2.44792 5.52085,2.96876 v 0.9375 q -6.09377,-0.625 -10.98962,-0.625 z"
         id="path2462" />
      <path
         d="m 440.69758,358.05091 q -3.28126,4.1146 -3.28126,9.01045 0,5.78127 4.06251,9.4792 -3.17709,-0.72917 -5.62501,-3.1771 -2.55209,-2.39584 -2.55209,-6.25002 0,-6.71877 7.39585,-9.06253 z m 33.48969,19.63548 -10.00003,-0.625 v -27.03133 q 0,-4.1146 -0.78125,-6.04169 -0.88542,-1.97917 -3.07293,-3.38543 4.53126,0.88542 6.14585,3.22918 1.61459,2.39584 1.61459,8.59378 v 16.0938 q 0,4.11459 1.14584,5.88543 1.09375,1.77084 4.94793,2.34376 z m -17.29172,-4.94793 v -13.59379 q -1.71876,-0.20834 -2.91668,-0.20834 -4.11459,0 -6.40627,2.50001 -2.29167,2.55209 -2.29167,5.83335 0,2.96876 1.92709,5.0521 1.97917,2.18751 4.79168,2.18751 2.50001,0 4.89585,-1.77084 z m 0,-16.45838 v -5.52086 q 0,-3.75001 -1.51042,-5.88543 -1.56251,-2.08334 -6.04169,-2.08334 -6.97919,0 -11.77087,5.26043 l -1.30208,-1.25 q 1.92708,-3.28126 6.09376,-5.41668 4.16668,-2.03126 8.64586,-2.03126 9.73962,0 9.73962,10.62503 v 27.08342 q -2.39584,0.10417 -4.01043,0.625 l 0.15625,-2.76042 q -2.60418,2.76042 -6.19794,2.76042 -4.11459,0 -6.87502,-3.22917 -2.81251,-3.22918 -2.81251,-7.29169 0,-4.68752 3.43751,-8.02086 3.33335,-3.33335 8.90628,-3.33335 1.77084,0 3.54168,0.46876 z"
         id="path2464" />
      <path
         d="m 480.48937,363.20718 h 0.78126 q 1.5625,4.84377 5.15626,8.07294 3.64585,3.22918 7.81253,3.22918 3.28126,0 5.6771,-1.66667 2.29167,-1.66667 2.29167,-3.90627 0,-2.39584 -2.34376,-3.85417 -2.39584,-1.45834 -8.75002,-2.76043 -6.25002,-1.35417 -9.32295,-3.95834 -3.07293,-2.65626 -3.07293,-6.61461 0,-3.07293 2.03126,-5.78127 -0.20833,1.30209 -0.20833,2.39584 0,2.60418 1.5625,4.89585 1.45834,2.18751 4.1146,3.33335 2.60417,1.14583 8.75003,2.65625 5.83335,1.40626 8.48961,3.43752 2.60417,2.03125 2.60417,5.88543 0,4.06251 -3.28126,6.66669 -3.22918,2.55209 -9.42711,2.55209 -5.46877,0 -12.60421,-2.65626 0,-3.95834 -0.20833,-5.62502 -0.15625,-1.5625 -0.15625,-3.33334 0,-0.98959 0.10416,-2.96876 z m 29.73968,-11.30212 h -0.72917 q -1.82292,-4.79168 -5.83335,-7.2396 -3.95835,-2.39585 -8.02086,-2.39585 -3.17709,0 -5.62502,1.25001 -2.39584,1.30209 -2.39584,3.69793 0,1.82292 1.77084,2.81251 1.66667,0.9375 6.56252,1.97917 10.1042,2.13542 13.07296,5.46877 2.96876,3.33334 2.96876,7.03127 0,3.17709 -2.91668,7.13544 0.41667,-1.92709 0.41667,-3.28126 0,-4.01043 -2.70834,-7.34378 -2.65626,-3.28126 -12.44796,-5.57293 -5.78126,-1.35417 -8.02085,-3.02084 -2.29168,-1.71876 -2.29168,-5.0521 0,-3.75001 3.38543,-6.04169 3.33334,-2.23959 9.84378,-2.23959 6.19794,0 12.70837,2.55209 -0.10416,1.25001 -0.10416,1.40626 0,1.92709 0.20833,4.06251 0.15625,1.87501 0.15625,4.79168 z"
         style="fill:#0f80df"
         id="path2466" />
    </g>
  </g>
</svg>
